<?xml version="1.0" encoding="UTF-8" standalone="no"?>
<!DOCTYPE svg PUBLIC "-//W3C//DTD SVG 1.1//EN" "http://www.w3.org/Graphics/SVG/1.1/DTD/svg11.dtd">
<svg width="100%" height="100%" viewBox="0 0 918 378" version="1.1" xmlns="http://www.w3.org/2000/svg" xmlns:xlink="http://www.w3.org/1999/xlink" xml:space="preserve" xmlns:serif="http://www.serif.com/" style="fill-rule:evenodd;clip-rule:evenodd;stroke-linejoin:round;stroke-miterlimit:2;">
    <g transform="matrix(1,0,0,1,-57.796871,-1388.560341)">
        <g transform="matrix(0.917271,0,0,1.217649,-905.337832,-343.329277)">
            <rect x="1050" y="1422.322" width="1000" height="310.242" style="fill:white;"/>
        </g>
        <g transform="matrix(1,0,0,1,8.885381,0)">
            <g transform="matrix(0.576833,0,0,0.576833,154.18044,1314.372193)">
                <g transform="matrix(327.677762,0,0,327.677762,98.821396,403.44515)">
                    <path d="M0.31,-0C0.257,-0 0.21,-0.011 0.169,-0.034C0.128,-0.057 0.095,-0.087 0.071,-0.126C0.047,-0.164 0.035,-0.207 0.035,-0.255C0.035,-0.303 0.047,-0.346 0.071,-0.385C0.095,-0.423 0.128,-0.453 0.169,-0.476C0.21,-0.499 0.257,-0.51 0.31,-0.51L0.374,-0.51L0.374,-0.393L0.31,-0.393C0.282,-0.393 0.258,-0.387 0.238,-0.375C0.217,-0.363 0.202,-0.346 0.191,-0.326C0.179,-0.304 0.174,-0.281 0.174,-0.255C0.174,-0.229 0.179,-0.206 0.191,-0.184C0.202,-0.164 0.217,-0.147 0.238,-0.135C0.258,-0.123 0.282,-0.117 0.31,-0.117L0.374,-0.117L0.374,-0L0.31,-0Z" style="fill-rule:nonzero;"/>
                </g>
                <g transform="matrix(327.677762,0,0,327.677762,231.203212,403.44515)">
                    <path d="M0.31,0.012C0.257,0.012 0.21,0 0.169,-0.024C0.128,-0.047 0.095,-0.079 0.071,-0.12C0.047,-0.16 0.035,-0.205 0.035,-0.255C0.035,-0.305 0.047,-0.35 0.071,-0.39C0.095,-0.431 0.128,-0.463 0.169,-0.486C0.21,-0.51 0.257,-0.522 0.31,-0.522C0.363,-0.522 0.41,-0.51 0.451,-0.486C0.492,-0.463 0.525,-0.431 0.549,-0.391C0.573,-0.351 0.585,-0.305 0.585,-0.255C0.585,-0.205 0.573,-0.16 0.549,-0.12C0.525,-0.079 0.492,-0.047 0.451,-0.024C0.41,0 0.363,0.012 0.31,0.012ZM0.31,-0.105C0.338,-0.105 0.362,-0.112 0.383,-0.125C0.403,-0.138 0.419,-0.156 0.429,-0.179C0.44,-0.201 0.446,-0.227 0.446,-0.255C0.446,-0.283 0.44,-0.308 0.429,-0.331C0.419,-0.354 0.403,-0.372 0.383,-0.385C0.362,-0.398 0.338,-0.405 0.31,-0.405C0.282,-0.405 0.258,-0.398 0.238,-0.385C0.217,-0.372 0.202,-0.354 0.191,-0.331C0.179,-0.309 0.174,-0.283 0.174,-0.255C0.174,-0.227 0.179,-0.202 0.191,-0.179C0.202,-0.156 0.217,-0.138 0.238,-0.125C0.258,-0.112 0.282,-0.105 0.31,-0.105Z" style="fill-rule:nonzero;"/>
                </g>
                <g transform="matrix(327.677762,0,0,327.677762,434.363424,403.44515)">
                    <path d="M0.065,-0L0.065,-0.303C0.065,-0.343 0.075,-0.38 0.094,-0.413C0.113,-0.446 0.141,-0.473 0.177,-0.492C0.214,-0.512 0.258,-0.522 0.309,-0.522C0.334,-0.522 0.357,-0.519 0.378,-0.513C0.399,-0.508 0.418,-0.5 0.436,-0.489C0.454,-0.478 0.47,-0.466 0.483,-0.451L0.484,-0.451C0.498,-0.466 0.514,-0.478 0.532,-0.489C0.55,-0.5 0.57,-0.508 0.591,-0.513C0.612,-0.519 0.635,-0.522 0.66,-0.522C0.711,-0.522 0.755,-0.512 0.791,-0.492C0.828,-0.473 0.856,-0.446 0.875,-0.413C0.894,-0.38 0.904,-0.343 0.904,-0.303L0.904,-0L0.767,-0L0.767,-0.303C0.767,-0.322 0.762,-0.339 0.753,-0.354C0.743,-0.369 0.73,-0.382 0.714,-0.391C0.698,-0.4 0.68,-0.405 0.66,-0.405C0.641,-0.405 0.623,-0.4 0.607,-0.391C0.59,-0.382 0.577,-0.369 0.568,-0.354C0.558,-0.339 0.553,-0.322 0.553,-0.303L0.553,-0L0.416,-0L0.416,-0.303C0.416,-0.322 0.411,-0.339 0.402,-0.354C0.392,-0.369 0.379,-0.382 0.363,-0.391C0.347,-0.4 0.329,-0.405 0.309,-0.405C0.29,-0.405 0.272,-0.4 0.256,-0.391C0.239,-0.382 0.226,-0.369 0.216,-0.354C0.207,-0.339 0.202,-0.322 0.202,-0.303L0.202,-0L0.065,-0Z" style="fill-rule:nonzero;"/>
                </g>
                <g transform="matrix(327.677762,0,0,327.677762,751.883176,403.44515)">
                    <path d="M0.31,0.012C0.257,0.012 0.21,0 0.169,-0.024C0.128,-0.047 0.095,-0.079 0.071,-0.12C0.047,-0.16 0.035,-0.205 0.035,-0.255C0.035,-0.305 0.047,-0.35 0.071,-0.39C0.095,-0.431 0.128,-0.463 0.169,-0.486C0.21,-0.51 0.257,-0.522 0.31,-0.522C0.363,-0.522 0.41,-0.51 0.451,-0.486C0.492,-0.463 0.525,-0.431 0.549,-0.391C0.573,-0.351 0.585,-0.305 0.585,-0.255C0.585,-0.205 0.573,-0.16 0.549,-0.12C0.525,-0.079 0.492,-0.047 0.451,-0.024C0.41,0 0.363,0.012 0.31,0.012ZM0.31,-0.105C0.338,-0.105 0.362,-0.112 0.383,-0.125C0.403,-0.138 0.419,-0.156 0.429,-0.179C0.44,-0.201 0.446,-0.227 0.446,-0.255C0.446,-0.283 0.44,-0.308 0.429,-0.331C0.419,-0.354 0.403,-0.372 0.383,-0.385C0.362,-0.398 0.338,-0.405 0.31,-0.405C0.282,-0.405 0.258,-0.398 0.238,-0.385C0.217,-0.372 0.202,-0.354 0.191,-0.331C0.179,-0.309 0.174,-0.283 0.174,-0.255C0.174,-0.227 0.179,-0.202 0.191,-0.179C0.202,-0.156 0.217,-0.138 0.238,-0.125C0.258,-0.112 0.282,-0.105 0.31,-0.105Z" style="fill-rule:nonzero;"/>
                </g>
                <g transform="matrix(327.677762,0,0,327.677762,955.043388,403.44515)">
                    <path d="M0.304,0.012C0.261,0.012 0.223,0.005 0.19,-0.009C0.156,-0.022 0.128,-0.042 0.105,-0.067C0.082,-0.092 0.065,-0.121 0.053,-0.154C0.041,-0.188 0.035,-0.225 0.035,-0.265C0.035,-0.316 0.045,-0.36 0.066,-0.399C0.086,-0.437 0.115,-0.467 0.151,-0.489C0.189,-0.511 0.232,-0.522 0.281,-0.522C0.302,-0.522 0.323,-0.519 0.343,-0.513C0.362,-0.507 0.38,-0.498 0.396,-0.487C0.412,-0.476 0.425,-0.462 0.435,-0.447L0.436,-0.447L0.436,-0.73L0.573,-0.73L0.573,-0.265C0.573,-0.209 0.562,-0.16 0.54,-0.119C0.518,-0.077 0.487,-0.045 0.447,-0.022C0.407,0.001 0.359,0.012 0.304,0.012ZM0.304,-0.105C0.331,-0.105 0.355,-0.112 0.374,-0.125C0.393,-0.138 0.408,-0.156 0.418,-0.179C0.429,-0.202 0.434,-0.227 0.434,-0.255C0.434,-0.283 0.429,-0.308 0.418,-0.331C0.408,-0.354 0.393,-0.372 0.374,-0.385C0.355,-0.398 0.331,-0.405 0.304,-0.405C0.277,-0.405 0.254,-0.398 0.235,-0.385C0.215,-0.372 0.2,-0.354 0.19,-0.331C0.179,-0.308 0.174,-0.283 0.174,-0.255C0.174,-0.227 0.179,-0.202 0.19,-0.179C0.2,-0.156 0.215,-0.138 0.235,-0.125C0.254,-0.112 0.277,-0.105 0.304,-0.105Z" style="fill-rule:nonzero;"/>
                </g>
                <g transform="matrix(327.677762,0,0,327.677762,1162.463411,403.44515)">
                    <path d="M0.31,0.012C0.257,0.012 0.21,0 0.169,-0.024C0.128,-0.047 0.095,-0.079 0.071,-0.12C0.047,-0.16 0.035,-0.205 0.035,-0.255C0.035,-0.305 0.047,-0.35 0.071,-0.39C0.095,-0.431 0.128,-0.463 0.169,-0.486C0.21,-0.51 0.257,-0.522 0.31,-0.522C0.363,-0.522 0.41,-0.51 0.451,-0.486C0.492,-0.463 0.525,-0.431 0.549,-0.391C0.573,-0.351 0.585,-0.305 0.585,-0.255C0.585,-0.205 0.573,-0.16 0.549,-0.12C0.525,-0.079 0.492,-0.047 0.451,-0.024C0.41,0 0.363,0.012 0.31,0.012ZM0.31,-0.105C0.338,-0.105 0.362,-0.112 0.383,-0.125C0.403,-0.138 0.419,-0.156 0.429,-0.179C0.44,-0.201 0.446,-0.227 0.446,-0.255C0.446,-0.283 0.44,-0.308 0.429,-0.331C0.419,-0.354 0.403,-0.372 0.383,-0.385C0.362,-0.398 0.338,-0.405 0.31,-0.405C0.282,-0.405 0.258,-0.398 0.238,-0.385C0.217,-0.372 0.202,-0.354 0.191,-0.331C0.179,-0.309 0.174,-0.283 0.174,-0.255C0.174,-0.227 0.179,-0.202 0.191,-0.179C0.202,-0.156 0.217,-0.138 0.238,-0.125C0.258,-0.112 0.282,-0.105 0.31,-0.105Z" style="fill-rule:nonzero;"/>
                </g>
                <g transform="matrix(327.677762,0,0,327.677762,1365.623624,403.44515)">
                </g>
            </g>
            <g transform="matrix(0.661009,0,0,0.661009,9.419639,1438.736879)">
                <g transform="matrix(302.567548,0,0,302.567548,98.821396,403.44515)">
                    <path d="M0.06,-0L0.06,-0.155L0.358,-0.155C0.371,-0.155 0.382,-0.157 0.391,-0.163C0.4,-0.169 0.407,-0.176 0.412,-0.185C0.418,-0.194 0.42,-0.204 0.42,-0.215C0.42,-0.226 0.418,-0.237 0.412,-0.246C0.407,-0.255 0.4,-0.262 0.391,-0.268C0.382,-0.274 0.371,-0.276 0.358,-0.276L0.259,-0.276C0.217,-0.276 0.179,-0.285 0.145,-0.301C0.111,-0.317 0.084,-0.341 0.063,-0.372C0.043,-0.404 0.033,-0.441 0.033,-0.485C0.033,-0.529 0.042,-0.566 0.062,-0.599C0.081,-0.631 0.107,-0.656 0.14,-0.673C0.173,-0.691 0.209,-0.7 0.249,-0.7L0.563,-0.7L0.563,-0.545L0.273,-0.545C0.263,-0.545 0.253,-0.543 0.245,-0.538C0.236,-0.533 0.23,-0.526 0.225,-0.518C0.221,-0.51 0.218,-0.501 0.218,-0.491C0.218,-0.481 0.221,-0.472 0.225,-0.463C0.23,-0.455 0.236,-0.448 0.245,-0.443C0.253,-0.438 0.263,-0.436 0.273,-0.436L0.378,-0.436C0.424,-0.436 0.464,-0.427 0.499,-0.41C0.533,-0.392 0.559,-0.368 0.578,-0.337C0.597,-0.306 0.606,-0.27 0.606,-0.228C0.606,-0.18 0.596,-0.139 0.577,-0.105C0.557,-0.07 0.531,-0.044 0.498,-0.027C0.465,-0.009 0.428,-0 0.388,-0L0.06,-0Z" style="fill:url(#_Linear1);fill-rule:nonzero;"/>
                </g>
                <g transform="matrix(302.567548,0,0,302.567548,291.556924,403.44515)">
                    <path d="M0.224,0.203L0.224,0C0.188,-0.009 0.157,-0.025 0.131,-0.046C0.105,-0.067 0.085,-0.093 0.071,-0.122C0.057,-0.152 0.05,-0.184 0.05,-0.219L0.05,-0.515L0.223,-0.515L0.223,-0.228C0.223,-0.213 0.227,-0.199 0.234,-0.185C0.242,-0.172 0.252,-0.162 0.265,-0.153C0.278,-0.145 0.294,-0.141 0.311,-0.141C0.328,-0.141 0.343,-0.145 0.356,-0.153C0.369,-0.162 0.38,-0.172 0.387,-0.185C0.394,-0.199 0.397,-0.213 0.397,-0.228L0.397,-0.515L0.571,-0.515L0.571,-0.219C0.571,-0.184 0.564,-0.152 0.551,-0.122C0.537,-0.092 0.517,-0.066 0.492,-0.045C0.466,-0.024 0.435,-0.009 0.398,0.001L0.398,0.203L0.224,0.203Z" style="fill:url(#_Linear2);fill-rule:nonzero;"/>
                </g>
                <g transform="matrix(302.567548,0,0,302.567548,479.451372,403.44515)">
                    <path d="M0.05,-0L0.05,-0.296C0.05,-0.34 0.061,-0.379 0.083,-0.414C0.104,-0.449 0.135,-0.477 0.175,-0.497C0.214,-0.517 0.261,-0.527 0.314,-0.527C0.368,-0.527 0.414,-0.517 0.452,-0.497C0.491,-0.477 0.52,-0.449 0.541,-0.414C0.561,-0.379 0.572,-0.34 0.572,-0.296L0.572,-0L0.398,-0L0.398,-0.288C0.398,-0.304 0.394,-0.318 0.387,-0.331C0.38,-0.344 0.369,-0.354 0.356,-0.362C0.343,-0.37 0.328,-0.374 0.311,-0.374C0.294,-0.374 0.279,-0.37 0.266,-0.362C0.252,-0.354 0.242,-0.344 0.234,-0.331C0.227,-0.318 0.223,-0.304 0.223,-0.288L0.223,-0L0.05,-0Z" style="fill:url(#_Linear3);fill-rule:nonzero;"/>
                </g>
                <g transform="matrix(302.567548,0,0,302.567548,667.345819,403.44515)">
                    <path d="M0.31,-0C0.257,-0 0.209,-0.011 0.167,-0.033C0.125,-0.055 0.092,-0.085 0.068,-0.124C0.044,-0.162 0.032,-0.207 0.032,-0.257C0.032,-0.307 0.044,-0.352 0.068,-0.391C0.092,-0.429 0.125,-0.46 0.167,-0.482C0.209,-0.504 0.257,-0.515 0.31,-0.515L0.399,-0.515L0.399,-0.371L0.321,-0.371C0.298,-0.371 0.277,-0.366 0.26,-0.356C0.243,-0.346 0.23,-0.332 0.22,-0.315C0.211,-0.298 0.206,-0.278 0.206,-0.257C0.206,-0.235 0.211,-0.216 0.22,-0.199C0.23,-0.181 0.243,-0.167 0.26,-0.157C0.277,-0.147 0.298,-0.142 0.321,-0.142L0.399,-0.142L0.399,-0L0.31,-0Z" style="fill:url(#_Linear4);fill-rule:nonzero;"/>
                </g>
                <g transform="matrix(302.567548,0,0,302.567548,796.542162,403.44515)">
                </g>
            </g>
            <g transform="matrix(2.97966,0,0,3.160206,-225.255721,-129.998576)">
                <g transform="matrix(-1.60988,0,0,1.157991,1473.045039,-51.398542)">
                    <path d="M744.024,546.246L678.449,546.246L678.354,545.746L743.928,545.746L744.024,546.246Z" style="fill:rgb(0,50,56);"/>
                </g>
                <g transform="matrix(-1.616361,0,0,1.157991,1477.842745,-50.955068)">
                    <path d="M743.702,544.254L678.391,544.254L678.2,543.254L743.511,543.254L743.702,544.254Z" style="fill:rgb(1,72,80);"/>
                </g>
                <g transform="matrix(-1.631235,0,0,1.157991,1488.853214,-49.649192)">
                    <path d="M743.272,541.017L678.556,541.017L678.179,539.017L742.895,539.017L743.272,541.017Z" style="fill:rgb(3,93,104);"/>
                </g>
                <g transform="matrix(-1.664302,0,0,1.157991,1513.330861,-48.828181)">
                    <path d="M742.637,537.199L679.207,537.199L678.652,534.199L742.082,534.199L742.637,537.199Z" style="fill:rgb(5,114,128);"/>
                </g>
                <g transform="matrix(-1.716554,0,0,1.157991,1552.01014,-48.972838)">
                    <path d="M741.827,533.214L680.328,533.214L679.61,529.214L741.109,529.214L741.827,533.214Z" style="fill:rgb(8,134,150);"/>
                </g>
                <g transform="matrix(-1.804831,0,0,1.157991,1617.356335,-50.66013)">
                    <path d="M740.878,529.562L682.386,529.562L681.533,524.562L740.024,524.562L740.878,529.562Z" style="fill:rgb(12,154,172);"/>
                </g>
                <g transform="matrix(-1.911978,0,0,1.157991,1696.670979,-58.313453)">
                    <path d="M739.858,530.062L684.645,530.062L683.678,524.062L738.892,524.062L739.858,530.062Z" style="fill:rgb(17,173,193);"/>
                </g>
            </g>
        </g>
    </g>
    <defs>
        <linearGradient id="_Linear1" x1="0" y1="0" x2="1" y2="0" gradientUnits="userSpaceOnUse" gradientTransform="matrix(0,0.668409,-0.668409,0,0.800651,-0.448562)"><stop offset="0" style="stop-color:rgb(17,173,193);stop-opacity:1"/><stop offset="0.4" style="stop-color:rgb(8,134,150);stop-opacity:1"/><stop offset="1" style="stop-color:rgb(0,50,56);stop-opacity:1"/></linearGradient>
        <linearGradient id="_Linear2" x1="0" y1="0" x2="1" y2="0" gradientUnits="userSpaceOnUse" gradientTransform="matrix(0,0.668409,-0.668409,0,0.163651,-0.448562)"><stop offset="0" style="stop-color:rgb(17,173,193);stop-opacity:1"/><stop offset="0.4" style="stop-color:rgb(8,134,150);stop-opacity:1"/><stop offset="1" style="stop-color:rgb(0,50,56);stop-opacity:1"/></linearGradient>
        <linearGradient id="_Linear3" x1="0" y1="0" x2="1" y2="0" gradientUnits="userSpaceOnUse" gradientTransform="matrix(0,0.668409,-0.668409,0,-0.457349,-0.448562)"><stop offset="0" style="stop-color:rgb(17,173,193);stop-opacity:1"/><stop offset="0.4" style="stop-color:rgb(8,134,150);stop-opacity:1"/><stop offset="1" style="stop-color:rgb(0,50,56);stop-opacity:1"/></linearGradient>
        <linearGradient id="_Linear4" x1="0" y1="0" x2="1" y2="0" gradientUnits="userSpaceOnUse" gradientTransform="matrix(0,0.668409,-0.668409,0,-1.078349,-0.448562)"><stop offset="0" style="stop-color:rgb(17,173,193);stop-opacity:1"/><stop offset="0.4" style="stop-color:rgb(8,134,150);stop-opacity:1"/><stop offset="1" style="stop-color:rgb(0,50,56);stop-opacity:1"/></linearGradient>
    </defs>
</svg>
